HIERARCHY
ROOT pelvis
{
  OFFSET 0 100 0
  CHANNELS 6 Xposition Yposition Zposition Zrotation Xrotation Yrotation
  JOINT pelvis_right_femur
  {
    OFFSET -10.78128 -3.44521 -0.5502486
    CHANNELS 3 Zrotation Xrotation Yrotation
    JOINT right_femur_tibia
    {
      OFFSET -0.8047443 -44.0398 -0.1307829
      CHANNELS 3 Zrotation Xrotation Yrotation
      JOINT right_tibia_foot
      {
        OFFSET 3.006224 -47.83518 -5
        CHANNELS 3 Zrotation Xrotation Yrotation
        End Site
        {
          OFFSET 0 -5 15
        }
      }
    }
  }
  JOINT pelvis_left_femur
  {
    OFFSET 10.78128 -3.44521 -0.5502486
    CHANNELS 3 Zrotation Xrotation Yrotation
    JOINT left_femur_tibia
    {
      OFFSET 0.8047443 -44.0398 -0.1307829
      CHANNELS 3 Zrotation Xrotation Yrotation
      JOINT left_tibia_foot
      {
        OFFSET -4.370144 -48.10324 -4.275266
        CHANNELS 3 Zrotation Xrotation Yrotation
        End Site
        {
          OFFSET 0 -5 15
        }
      }
    }
  }
  JOINT pelvis_spine1
  {
    OFFSET 0 6.468898 -3.129235
    CHANNELS 3 Zrotation Xrotation Yrotation
    JOINT spine1
    {
      OFFSET 0 23.15396 4.99043
      CHANNELS 3 Zrotation Xrotation Yrotation
      JOINT spine2
      {
        OFFSET 0 20.79997 -5.064912
        CHANNELS 3 Zrotation Xrotation Yrotation
        JOINT neck
        {
          OFFSET 0 14.38658 9.616178
          CHANNELS 3 Zrotation Xrotation Yrotation
          End Site
          {
            OFFSET 0 20 0
          }
        }
      }
      JOINT right_manubrium
      {
        OFFSET -5.722621 16.35077 3.967754
        CHANNELS 3 Zrotation Xrotation Yrotation
        JOINT right_clavicle
        {
          OFFSET -13.16364 1.694482 -4.693211
          CHANNELS 3 Zrotation Xrotation Yrotation
          JOINT right_humerus
          {
            OFFSET -28.5034 -0.3100689 -2.792744
            CHANNELS 3 Zrotation Xrotation Yrotation
            JOINT right_radius
            {
              OFFSET -25.15693 0.02248979 -1.271978
              CHANNELS 3 Zrotation Xrotation Yrotation
              End Site
              {
                OFFSET -15 0 0
              }
            }
          }
        }
      }
      JOINT left_manubrium
      {
        OFFSET 5.722621 16.35077 3.967754
        CHANNELS 3 Zrotation Xrotation Yrotation
        JOINT left_clavicle
        {
          OFFSET 13.16364 1.694482 -4.693211
          CHANNELS 3 Zrotation Xrotation Yrotation
          JOINT left_humerus
          {
            OFFSET 29.39168 -1.063119 -2.237045
            CHANNELS 3 Zrotation Xrotation Yrotation
            JOINT left_radius
            {
              OFFSET 24.59957 -0.9528479 0.9047498
              CHANNELS 3 Zrotation Xrotation Yrotation
              End Site
              {
                OFFSET 15 -0 -0
              }
            }
          }
        }
      }
    }
  }
}
MOTION
Frames: 13
Frame Time: 0.0416666666667
0 103.5113 0 -0.2373996 -1.520031 -0.304119 0.2815389 -4.146038 8.534549 -0 28.13921 -0 -6.676892 -14.77325 -3.15189 -4.576262 8.682515 -21.36163 -0 8.971409 -0 4.319206 -20.8443 24.16802 -1.880012 -7.010735 5.040084 3.670086 8.658744 -8.958515 1.28589 25.50377 4.580352 -2.479027 -19.49536 9.283508 8.746082 -13.63028 16.66333 80.0366 37.22222 -14.87355 -0 0 15.00029 -7.542284 5.434218 6.076787 2.464562 -16.65752 -0.7039677 -96.1242 34.1104 20.50737 0 0 -9.21844 4.645123 29.48641 6.824321
0.4953593 103.4342 0.7477627 -0.2588938 -1.606807 -0.6222973 0.5624264 -7.428056 8.86516 -0 34.04229 -0 -6.596219 -13.73001 -4.097336 -4.823662 9.546436 -21.02762 -0 8.392776 -0 4.099357 -21.19227 24.04259 -2.171634 -6.342893 4.566887 3.835915 8.663602 -9.361265 0.9668687 25.54887 4.902027 -2.70256 -19.92394 9.485163 8.62396 -13.93461 16.54402 79.548 36.61481 -14.36391 -0 0 15.52998 -8.248993 5.355959 6.34966 2.693276 -16.80728 -0.9904206 -96.82527 34.27586 21.46654 0 0 -9.281919 4.401768 29.37431 7.444956
0.8470512 103.3278 1.656594 -0.2904425 -1.731976 -1.081775 1.026879 -11.07496 8.844599 -0 38.84904 -0 -6.677094 -12.89307 -5.061644 -5.003627 10.58582 -20.6403 -0 7.75934 -0 3.812142 -21.53131 23.95724 -2.562462 -5.474716 4.068076 3.993804 8.620003 -9.739713 0.8316319 25.30939 5.138458 -2.8696 -20.47982 9.750462 8.647643 -14.27397 16.43344 79.15466 35.98657 -13.93809 -0 0 15.98025 -8.911876 5.286035 6.567683 2.725307 -16.83246 -1.361861 -97.37211 34.44752 22.42999 0 0 -9.17154 3.961029 29.1484 8.142213
1.13224 103.3466 2.765562 -0.3309513 -1.884561 -1.645347 1.713918 -14.69203 8.447146 -0 41.75894 -0 -6.911633 -12.18675 -5.609439 -5.175491 11.76855 -20.18967 -0 7.105572 -0 3.421891 -21.81685 23.90568 -3.086391 -4.361678 3.624262 4.098245 8.556838 -10.04153 0.772645 24.94949 5.337219 -2.974317 -21.12095 9.996889 8.565817 -14.47395 16.35441 79.03809 35.40097 -13.80082 -0 0 16.25047 -9.464058 5.239641 6.725215 2.888879 -16.90175 -1.867002 -97.6531 34.65538 23.21441 0 0 -9.085666 3.437301 28.83102 8.82347
1.249538 103.4393 4.069598 -0.370456 -2.021219 -2.156449 2.529903 -18.15755 7.730257 -0 42.43487 -0 -7.142786 -11.16349 -5.604061 -5.262989 13.05408 -19.69625 -0 6.470167 -0 2.964342 -22.10897 23.85451 -3.494842 -3.207252 3.489921 3.979214 8.469069 -9.964441 0.8029958 24.56348 5.496624 -2.984844 -21.78239 10.22253 8.216838 -14.44782 16.25438 79.26063 34.89926 -14.01763 -0 0 16.23943 -9.850672 5.243101 6.791194 3.073476 -17.11409 -2.101238 -97.77263 34.81898 23.67451 0 0 -9.134756 3.035281 28.44618 9.422915
1.420524 103.369 5.600144 -0.4206642 -2.189622 -2.790842 3.219838 -21.28903 6.917137 -0 39.80013 -0 -7.121444 -10.00987 -5.140687 -5.447869 14.50091 -19.10022 -0 5.881981 -0 2.525954 -22.52848 23.771 -3.830259 -1.863743 3.324851 4.021445 8.291713 -9.94977 0.7583167 24.11782 5.70377 -2.996067 -22.45039 10.39997 7.969454 -14.46289 16.22546 79.72184 34.55974 -14.38771 -0 0 15.97548 -9.986005 5.339733 6.772308 3.435679 -17.33136 -2.548098 -97.76893 34.98069 23.86685 0 0 -9.55473 2.662172 28.00782 9.83451
1.523874 103.0879 7.368981 -0.4663901 -2.330941 -3.332954 3.665666 -23.83387 6.114334 -0 34.90226 -0 -6.993809 -8.751119 -4.491063 -5.660036 16.01136 -18.44639 -0 5.498501 -0 2.152496 -23.12626 23.61869 -3.999648 -0.6010372 3.312781 3.978466 8.135 -9.704878 0.7332784 23.62929 5.886678 -2.955748 -23.11088 10.51569 7.571151 -14.36191 16.18293 80.36076 34.37165 -15.05434 -0 0 15.2759 -9.917387 5.513467 6.623612 3.826454 -17.63044 -2.802539 -97.63354 35.08546 23.76506 0 0 -10.26253 2.444866 27.52753 10.07171
1.556095 102.5059 9.505435 -0.5014222 -2.427786 -3.715744 3.939785 -25.8051 5.371552 -0 28.70022 -0 -6.779111 -7.394641 -3.789258 -6.00197 17.50371 -17.72459 -0 5.341072 -0 1.83031 -23.89347 23.34437 -4.13375 0.4999385 3.353288 3.893497 8.035178 -9.432157 0.7528686 23.1904 6.060092 -2.829967 -23.7758 10.60299 7.130197 -14.20834 16.01993 81.17412 34.28357 -15.95178 -0 0 14.27563 -9.693742 5.74463 6.399102 4.234723 -17.96106 -2.931448 -97.35931 35.13391 23.47407 0 0 -11.13998 2.340097 26.9977 10.17098
1.583963 101.9348 12.01637 -0.5223636 -2.475858 -3.919728 4.077722 -27.34558 4.77621 -0 22.24307 -0 -6.651528 -6.306147 -3.020705 -6.092377 19.22478 -17.01638 -0 5.364166 -0 1.335393 -24.6055 22.65315 -4.052066 1.535644 3.356271 3.918796 8.05793 -9.2172 0.6548448 23.01853 6.307133 -2.685254 -24.41836 10.63181 6.706935 -14.09443 15.74388 81.94739 34.25946 -16.99279 -0 0 13.04397 -9.398357 6.015959 6.140735 4.685641 -18.39724 -2.979984 -97.00285 35.14562 22.95486 0 0 -12.2006 2.395595 26.48677 10.25743
1.511598 101.1071 14.72676 -0.5178155 -2.437137 -3.797805 4.299168 -28.74141 4.453978 -0 16.83706 -0 -6.7056 -5.651908 -2.289794 -6.235908 20.7125 -16.25915 -0 5.759635 -0 0.7112064 -25.16676 21.75276 -3.994882 2.437663 3.366685 3.899207 8.137683 -9.055315 0.4993507 22.91545 6.606547 -2.443409 -24.82615 10.57331 6.384133 -14.01138 15.36045 82.72807 34.26775 -18.07232 -0 0 11.79584 -9.079534 6.319467 5.928018 5.020044 -18.91579 -3.020629 -96.49052 35.11376 22.32796 0 0 -13.17412 2.470779 25.91058 10.29864
1.365456 100.3334 18.12196 -0.4807368 -2.287646 -3.258964 4.447102 -29.63356 4.270814 -0 13.64847 -0 -7.001767 -5.267054 -1.858625 -6.277399 22.23598 -15.47379 -0 6.716976 -0 -0.1971658 -25.28773 20.55749 -3.824473 3.098073 3.251209 3.943464 7.948434 -9.050922 0.5561653 22.63005 6.807067 -2.135742 -25.20016 10.60769 6.16072 -13.79064 14.69904 83.58302 34.27212 -19.3536 -0 0 10.48058 -8.767281 6.652025 5.758116 5.025647 -19.26567 -2.978286 -96.11085 34.97675 21.98001 0 0 -13.84023 2.486895 25.25828 10.35802
1.132808 99.64225 22.01598 -0.426669 -2.076456 -2.485728 4.365346 -29.68984 3.988736 -0 13.15172 -0 -7.572914 -4.949315 -1.913746 -6.142423 23.34581 -14.70283 -0 8.583768 -0 -1.488211 -24.66258 19.06428 -3.636701 3.553181 3.070016 4.03682 7.79392 -9.161618 0.695788 22.29585 6.96008 -1.817359 -25.51507 10.68673 6.032836 -13.57226 13.9387 84.42641 34.27926 -20.59489 -0 0 9.249846 -8.506648 7.011937 5.681571 4.850521 -19.48455 -2.986613 -95.79747 34.75869 21.79075 0 0 -14.2628 2.452605 24.52399 10.44409
0.8818163 99.2646 26.48312 -0.3546351 -1.792502 -1.439722 4.019522 -28.57252 3.50878 -0 14.91042 -0 -8.303488 -4.524997 -2.400698 -5.672999 24.31761 -13.78795 -0 11.40704 -0 -3.212449 -22.91359 17.21462 -3.303087 3.596831 2.618377 4.214504 7.686852 -9.657394 0.7910751 22.02206 7.104805 -1.548754 -25.73201 10.75017 5.951654 -13.46847 13.18115 85.16098 34.344 -21.70759 -0 0 8.04938 -8.310061 7.403813 5.692588 4.455069 -19.4438 -3.083603 -95.68849 34.42864 21.87429 0 0 -14.49495 2.338477 23.72023 10.53091
